# xmcd
#
# Track frame offsets: 
#        150
#        10555
#        21480
#        32833
#        45948
#        57608
#        67513
#        78223
#        89478
#        101380
#        114685
#        127723
#        143738
#        155860
#        170080
#        183290
#
# Disc length: 2629 seconds
#
# Revision: 3
# Processed by: cddbd v1.5.2PL0 Copyright (c) Steve Scherf et al.
# Submitted via: ExactAudioCopyFreeDBPlugin 1.0
#
DISCID=c60a4310
DTITLE=Various Artist - The True Story of Country [CD 3 - Songs Of Fr
DTITLE=eedom)
DYEAR=1994
DGENRE=Country
TTITLE0=Johnny Russel - Jambalaja
TTITLE1=Carl Smith - Hey Joe
TTITLE2=Kitty Wells - It Wasn't God Who Mady Honky
TTITLE3=Wanda Jackson - I Fall To Pieces
TTITLE4=Henson Cargill - Skip A Rope
TTITLE5=Hank Locklin - Please Help Me I'm Falling
TTITLE6=Billy Walker - Charlie´s Shoes
TTITLE7=Porter Wagoner - Misery Loves Company
TTITLE8=Johnny Paycheck - Take This Job And Shove It
TTITLE9=Dave Dudley - The Pool Shark
TTITLE10=Faron Young - It's Four In The Morning
TTITLE11=Johnny Russel - Luchenbach Texas
TTITLE12=Donna Fargo - Funny Face
TTITLE13=Bob Luman - Lonely Woman Make Good Lovers
TTITLE14=Ferlin Husky - Country Music Is Here To Stay
TTITLE15=Anthony Amstrong Jones - Take A Letter Maria
EXTD=The True Story Of Country - CD 1/3
EXTT0=
EXTT1=
EXTT2=
EXTT3=
EXTT4=
EXTT5=
EXTT6=
EXTT7=
EXTT8=
EXTT9=
EXTT10=
EXTT11=
EXTT12=
EXTT13=
EXTT14=
EXTT15=
PLAYORDER=
